<svg xmlns="http://www.w3.org/2000/svg" xmlns:xlink="http://www.w3.org/1999/xlink" contentStyleType="text/css" data-diagram-type="ACTIVITY" height="511px" preserveAspectRatio="none" style="width:553px;height:511px;" version="1.1" viewBox="0 0 553 511" width="553px" zoomAndPan="magnify"><title>AutoTestDesign QRA Generation Flow</title><defs/><g><g class="title" data-source-line="1"><text fill="#000000" font-family="sans-serif" font-size="14" font-weight="bold" lengthAdjust="spacing" textLength="255.9033" x="147.1877" y="34.5332">AutoTestDesign QRA Generation Flow</text></g><ellipse cx="186.7529" cy="58.6094" fill="#222222" rx="10" ry="10" style="stroke:#222222;stroke-width:1;"/><rect fill="#F1F1F1" height="35.0938" rx="12.5" ry="12.5" style="stroke:#181818;stroke-width:0.5;" width="238.7832" x="67.3613" y="88.6094"/><text fill="#000000" font-family="sans-serif" font-size="12" lengthAdjust="spacing" textLength="218.7832" x="77.3613" y="111.0664">Input FitnessAI requirements into the tool</text><rect fill="#F1F1F1" height="35.0938" rx="12.5" ry="12.5" style="stroke:#181818;stroke-width:0.5;" width="351.5059" x="11" y="143.7031"/><text fill="#000000" font-family="sans-serif" font-size="12" lengthAdjust="spacing" textLength="331.5059" x="21" y="166.1602">QRA engine parses requirements and extracts feature weights</text><rect fill="#F1F1F1" height="35.0938" rx="12.5" ry="12.5" style="stroke:#181818;stroke-width:0.5;" width="197.4043" x="88.0508" y="198.7969"/><text fill="#000000" font-family="sans-serif" font-size="12" lengthAdjust="spacing" textLength="177.4043" x="98.0508" y="221.2539">Generate 10 structured risk items</text><path d="M307.1309,250.0859 L307.1309,267.4375 L287.1309,271.4375 L307.1309,275.4375 L307.1309,292.7891 A0,0 0 0 0 307.1309,292.7891 L541.2788,292.7891 A0,0 0 0 0 541.2788,292.7891 L541.2788,260.0859 L531.2788,250.0859 L307.1309,250.0859 A0,0 0 0 0 307.1309,250.0859" fill="#FEFFDD" style="stroke:#181818;stroke-width:0.5;"/><path d="M531.2788,250.0859 L531.2788,260.0859 L541.2788,260.0859 L531.2788,250.0859" fill="#FEFFDD" style="stroke:#181818;stroke-width:0.5;"/><text fill="#000000" font-family="sans-serif" font-size="13" lengthAdjust="spacing" textLength="213.1479" x="313.1309" y="268.5811">Adjust the Impact of REQ-POSE-001</text><text fill="#000000" font-family="sans-serif" font-size="13" lengthAdjust="spacing" textLength="62.1372" x="313.1309" y="284.9326">from 4 to 5</text><rect fill="#F1F1F1" height="35.0938" rx="12.5" ry="12.5" style="stroke:#181818;stroke-width:0.5;" width="200.7559" x="86.375" y="253.8906"/><text fill="#000000" font-family="sans-serif" font-size="12" lengthAdjust="spacing" textLength="180.7559" x="96.375" y="276.3477">Conduct interactive human review</text><rect fill="#F1F1F1" height="35.0938" rx="12.5" ry="12.5" style="stroke:#181818;stroke-width:0.5;" width="82.7012" x="145.4023" y="312.7891"/><text fill="#000000" font-family="sans-serif" font-size="12" lengthAdjust="spacing" textLength="62.7012" x="155.4023" y="335.2461">Recalculate</text><rect fill="#F1F1F1" height="35.0938" rx="12.5" ry="12.5" style="stroke:#181818;stroke-width:0.5;" width="98.7207" x="137.3926" y="367.8828"/><text fill="#000000" font-family="sans-serif" font-size="12" lengthAdjust="spacing" textLength="78.7207" x="147.3926" y="390.3398">Save Changes</text><rect fill="#F1F1F1" height="35.0938" rx="12.5" ry="12.5" style="stroke:#181818;stroke-width:0.5;" width="180.7344" x="96.3857" y="422.9766"/><text fill="#000000" font-family="sans-serif" font-size="12" lengthAdjust="spacing" textLength="160.7344" x="106.3857" y="445.4336">Export Excel / JSON evidence</text><ellipse cx="186.7529" cy="489.0703" fill="none" rx="11" ry="11" style="stroke:#222222;stroke-width:1;"/><ellipse cx="186.7529" cy="489.0703" fill="#222222" rx="6" ry="6" style="stroke:#222222;stroke-width:1;"/><line style="stroke:#181818;stroke-width:1;" x1="186.7529" x2="186.7529" y1="68.6094" y2="88.6094"/><polygon fill="#181818" points="182.7529,78.6094,186.7529,88.6094,190.7529,78.6094,186.7529,82.6094" style="stroke:#181818;stroke-width:1;"/><line style="stroke:#181818;stroke-width:1;" x1="186.7529" x2="186.7529" y1="123.7031" y2="143.7031"/><polygon fill="#181818" points="182.7529,133.7031,186.7529,143.7031,190.7529,133.7031,186.7529,137.7031" style="stroke:#181818;stroke-width:1;"/><line style="stroke:#181818;stroke-width:1;" x1="186.7529" x2="186.7529" y1="178.7969" y2="198.7969"/><polygon fill="#181818" points="182.7529,188.7969,186.7529,198.7969,190.7529,188.7969,186.7529,192.7969" style="stroke:#181818;stroke-width:1;"/><line style="stroke:#181818;stroke-width:1;" x1="186.7529" x2="186.7529" y1="233.8906" y2="253.8906"/><polygon fill="#181818" points="182.7529,243.8906,186.7529,253.8906,190.7529,243.8906,186.7529,247.8906" style="stroke:#181818;stroke-width:1;"/><line style="stroke:#181818;stroke-width:1;" x1="186.7529" x2="186.7529" y1="288.9844" y2="312.7891"/><polygon fill="#181818" points="182.7529,302.7891,186.7529,312.7891,190.7529,302.7891,186.7529,306.7891" style="stroke:#181818;stroke-width:1;"/><line style="stroke:#181818;stroke-width:1;" x1="186.7529" x2="186.7529" y1="347.8828" y2="367.8828"/><polygon fill="#181818" points="182.7529,357.8828,186.7529,367.8828,190.7529,357.8828,186.7529,361.8828" style="stroke:#181818;stroke-width:1;"/><line style="stroke:#181818;stroke-width:1;" x1="186.7529" x2="186.7529" y1="402.9766" y2="422.9766"/><polygon fill="#181818" points="182.7529,412.9766,186.7529,422.9766,190.7529,412.9766,186.7529,416.9766" style="stroke:#181818;stroke-width:1;"/><line style="stroke:#181818;stroke-width:1;" x1="186.7529" x2="186.7529" y1="458.0703" y2="478.0703"/><polygon fill="#181818" points="182.7529,468.0703,186.7529,478.0703,190.7529,468.0703,186.7529,472.0703" style="stroke:#181818;stroke-width:1;"/><!--SRC=[LOz1KiCm34NtFeKkqA6TWKsxofIqKnQKjbp094fYwaZ1afiU7vbX0KlF__hlMOD6X2ehlwFeCqhe2Kxd2lP8cBm69jX5dfsJQw399p_2Xs-kVU9CxPOZ9z3aIIn2qZyj6NpBSw0UEXy5RK1zKhS-q9GLTa49HQe39FpA8U5ermA1b44716ME6xSk9aXz80HR5PJ_TKyjuDtuZJqwz9eJmeoX7rJi-lSF2AibYARSbBo55EGAGN4idIrJQq4XOza9DuGXZvwCT0iuRnonBQIowQhsCul-21x6oTh07Pphq-BjUAaNo-NATOb7U3HzU79eTkNOhS_O-DZaQ2w6l7XZR0TFFHQ3-ZvnKgZl3KPuW9VByHKCtI8rrXRboNq3]--></g></svg>