<svg xmlns="http://www.w3.org/2000/svg" xmlns:xlink="http://www.w3.org/1999/xlink" contentStyleType="text/css" data-diagram-type="ACTIVITY" height="511px" preserveAspectRatio="none" style="width:383px;height:511px;" version="1.1" viewBox="0 0 383 511" width="383px" zoomAndPan="magnify"><title>AutoTestDesign QRA Generation Flow</title><defs/><g><g class="title" data-source-line="1"><text fill="#000000" font-family="sans-serif" font-size="14" font-weight="bold" lengthAdjust="spacing" textLength="255.9033" x="62.1287" y="34.5332">AutoTestDesign QRA Generation Flow</text></g><ellipse cx="113.6689" cy="58.6094" fill="#222222" rx="10" ry="10" style="stroke:#222222;stroke-width:1;"/><rect fill="#F1F1F1" height="35.0938" rx="12.5" ry="12.5" style="stroke:#181818;stroke-width:0.5;" width="160.6836" x="33.3271" y="88.6094"/><text fill="#000000" font-family="sans-serif" font-size="12" lengthAdjust="spacing" textLength="140.6836" x="43.3271" y="111.0664">&#23558; FitnessAI &#38656;&#27714;&#36755;&#20837;&#24037;&#20855;</text><rect fill="#F1F1F1" height="35.0938" rx="12.5" ry="12.5" style="stroke:#181818;stroke-width:0.5;" width="205.3379" x="11" y="143.7031"/><text fill="#000000" font-family="sans-serif" font-size="12" lengthAdjust="spacing" textLength="185.3379" x="21" y="166.1602">QRA &#24341;&#25806;&#35299;&#26512;&#38656;&#27714;&#24182;&#25552;&#21462;&#29305;&#24449;&#26435;&#37325;</text><rect fill="#F1F1F1" height="35.0938" rx="12.5" ry="12.5" style="stroke:#181818;stroke-width:0.5;" width="148.0156" x="39.6611" y="198.7969"/><text fill="#000000" font-family="sans-serif" font-size="12" lengthAdjust="spacing" textLength="128.0156" x="49.6611" y="221.2539">&#29983;&#25104; 10 &#26465;&#32467;&#26500;&#21270;&#39118;&#38505;&#39033;</text><path d="M179.6689,250.0859 L179.6689,267.4375 L159.6689,271.4375 L179.6689,275.4375 L179.6689,292.7891 A0,0 0 0 0 179.6689,292.7891 L371.1606,292.7891 A0,0 0 0 0 371.1606,292.7891 L371.1606,260.0859 L361.1606,250.0859 L179.6689,250.0859 A0,0 0 0 0 179.6689,250.0859" fill="#FEFFDD" style="stroke:#181818;stroke-width:0.5;"/><path d="M361.1606,250.0859 L361.1606,260.0859 L371.1606,260.0859 L361.1606,250.0859" fill="#FEFFDD" style="stroke:#181818;stroke-width:0.5;"/><text fill="#000000" font-family="sans-serif" font-size="13" lengthAdjust="spacing" textLength="170.4917" x="185.6689" y="268.5811">&#23558; REQ-POSE-001 &#30340; Impact</text><text fill="#000000" font-family="sans-serif" font-size="13" lengthAdjust="spacing" textLength="77.2954" x="185.6689" y="284.9326">&#30001; 4 &#35843;&#25972;&#20026; 5</text><rect fill="#F1F1F1" height="35.0938" rx="12.5" ry="12.5" style="stroke:#181818;stroke-width:0.5;" width="92" x="67.6689" y="253.8906"/><text fill="#000000" font-family="sans-serif" font-size="12" lengthAdjust="spacing" textLength="72" x="77.6689" y="276.3477">&#20154;&#24037;&#20132;&#20114;&#23457;&#26597;</text><rect fill="#F1F1F1" height="35.0938" rx="12.5" ry="12.5" style="stroke:#181818;stroke-width:0.5;" width="82.7012" x="72.3184" y="312.7891"/><text fill="#000000" font-family="sans-serif" font-size="12" lengthAdjust="spacing" textLength="62.7012" x="82.3184" y="335.2461">Recalculate</text><rect fill="#F1F1F1" height="35.0938" rx="12.5" ry="12.5" style="stroke:#181818;stroke-width:0.5;" width="98.7207" x="64.3086" y="367.8828"/><text fill="#000000" font-family="sans-serif" font-size="12" lengthAdjust="spacing" textLength="78.7207" x="74.3086" y="390.3398">Save Changes</text><rect fill="#F1F1F1" height="35.0938" rx="12.5" ry="12.5" style="stroke:#181818;stroke-width:0.5;" width="146.0176" x="40.6602" y="422.9766"/><text fill="#000000" font-family="sans-serif" font-size="12" lengthAdjust="spacing" textLength="126.0176" x="50.6602" y="445.4336">&#23548;&#20986; Excel / JSON &#35777;&#25454;</text><ellipse cx="113.6689" cy="489.0703" fill="none" rx="11" ry="11" style="stroke:#222222;stroke-width:1;"/><ellipse cx="113.6689" cy="489.0703" fill="#222222" rx="6" ry="6" style="stroke:#222222;stroke-width:1;"/><line style="stroke:#181818;stroke-width:1;" x1="113.6689" x2="113.6689" y1="68.6094" y2="88.6094"/><polygon fill="#181818" points="109.6689,78.6094,113.6689,88.6094,117.6689,78.6094,113.6689,82.6094" style="stroke:#181818;stroke-width:1;"/><line style="stroke:#181818;stroke-width:1;" x1="113.6689" x2="113.6689" y1="123.7031" y2="143.7031"/><polygon fill="#181818" points="109.6689,133.7031,113.6689,143.7031,117.6689,133.7031,113.6689,137.7031" style="stroke:#181818;stroke-width:1;"/><line style="stroke:#181818;stroke-width:1;" x1="113.6689" x2="113.6689" y1="178.7969" y2="198.7969"/><polygon fill="#181818" points="109.6689,188.7969,113.6689,198.7969,117.6689,188.7969,113.6689,192.7969" style="stroke:#181818;stroke-width:1;"/><line style="stroke:#181818;stroke-width:1;" x1="113.6689" x2="113.6689" y1="233.8906" y2="253.8906"/><polygon fill="#181818" points="109.6689,243.8906,113.6689,253.8906,117.6689,243.8906,113.6689,247.8906" style="stroke:#181818;stroke-width:1;"/><line style="stroke:#181818;stroke-width:1;" x1="113.6689" x2="113.6689" y1="288.9844" y2="312.7891"/><polygon fill="#181818" points="109.6689,302.7891,113.6689,312.7891,117.6689,302.7891,113.6689,306.7891" style="stroke:#181818;stroke-width:1;"/><line style="stroke:#181818;stroke-width:1;" x1="113.6689" x2="113.6689" y1="347.8828" y2="367.8828"/><polygon fill="#181818" points="109.6689,357.8828,113.6689,367.8828,117.6689,357.8828,113.6689,361.8828" style="stroke:#181818;stroke-width:1;"/><line style="stroke:#181818;stroke-width:1;" x1="113.6689" x2="113.6689" y1="402.9766" y2="422.9766"/><polygon fill="#181818" points="109.6689,412.9766,113.6689,422.9766,117.6689,412.9766,113.6689,416.9766" style="stroke:#181818;stroke-width:1;"/><line style="stroke:#181818;stroke-width:1;" x1="113.6689" x2="113.6689" y1="458.0703" y2="478.0703"/><polygon fill="#181818" points="109.6689,468.0703,113.6689,478.0703,117.6689,468.0703,113.6689,472.0703" style="stroke:#181818;stroke-width:1;"/><!--SRC=[JP3BJW8n58RtVOhp0aP8T0ChWc1m8Gg-G1tgC65eoRI8InKHJUGIGHEDG0WIuuPBObH6uzDCEynRMEB6vSd__PSSOGcRGAmis07XOejmowImdud1Dg74mS9Y598sgo342nOjOGSNuH0R1TDXPPgBCviv81nCkPO85VyediSvLh6e2KVOvaG72Em8596pIqXQWXBEOoa8daxL_7pvqv6riVmOozf754LM_VBxJdMQovUHwhV_8BbuLwssRDtxrmlvSwPwrQ3UqBJV7QYhDeH3e7f3_wkZ-XVovZuODOE7rs2uq8JdkZhRSvyzzrPEXcemZYBA1077ClC2hHPb4ljhU-biOYqK2eF_U06fOWaR0ldTEMp0SbPLTs_UfmkRYD0ShCmeaY46jesoZGNH9LbyJ22UnzGaN9zo-YthBYHE36B3Eknaqxkmd9wfnYIgFy5Aw1S0]--></g></svg>