<svg xmlns="http://www.w3.org/2000/svg" xmlns:xlink="http://www.w3.org/1999/xlink" contentStyleType="text/css" data-diagram-type="STATE" height="577px" preserveAspectRatio="none" style="width:568px;height:577px;" version="1.1" viewBox="0 0 568 577" width="568px" zoomAndPan="magnify"><title>FitnessAI Squat State Machine</title><defs/><g><g class="title" data-source-line="1"><text fill="#000000" font-family="sans-serif" font-size="14" font-weight="bold" lengthAdjust="spacing" textLength="203.8203" x="175.2209" y="24.5332">FitnessAI Squat State Machine</text></g><ellipse cx="143.5" cy="54.6094" fill="#222222" rx="10" ry="10" style="stroke:#222222;stroke-width:1;"/><rect fill="#F1F1F1" height="40" rx="12.5" ry="12.5" style="stroke:#181818;stroke-width:0.5;" width="50" x="118.5" y="160.1094"/><text fill="#000000" font-family="sans-serif" font-size="14" lengthAdjust="spacing" textLength="19.4482" x="133.7759" y="185.8379">UP</text><rect fill="#F1F1F1" height="40" rx="12.5" ry="12.5" style="stroke:#181818;stroke-width:0.5;" width="103.3447" x="7" y="295.6094"/><text fill="#000000" font-family="sans-serif" font-size="14" lengthAdjust="spacing" textLength="93.3447" x="12" y="321.3379">DESCENDING</text><rect fill="#F1F1F1" height="40" rx="12.5" ry="12.5" style="stroke:#181818;stroke-width:0.5;" width="54.3242" x="38.5" y="413.6094"/><text fill="#000000" font-family="sans-serif" font-size="14" lengthAdjust="spacing" textLength="44.3242" x="43.5" y="439.3379">DOWN</text><rect fill="#F1F1F1" height="40" rx="12.5" ry="12.5" style="stroke:#181818;stroke-width:0.5;" width="93.2344" x="113" y="531.6094"/><text fill="#000000" font-family="sans-serif" font-size="14" lengthAdjust="spacing" textLength="83.2344" x="118" y="557.3379">ASCENDING</text><g class="entity" data-entity="GMN2" data-source-line="14" data-uid="ent0003" id="entity_GMN2"><path d="M203.5,142.6094 L203.5,176.1094 L168.71,180.1094 L203.5,184.1094 L203.5,218.0156 A0,0 0 0 0 203.5,218.0156 L561.2622,218.0156 A0,0 0 0 0 561.2622,218.0156 L561.2622,152.6094 L551.2622,142.6094 L203.5,142.6094 A0,0 0 0 0 203.5,142.6094" fill="#FEFFDD" style="stroke:#181818;stroke-width:0.5;"/><path d="M551.2622,142.6094 L551.2622,152.6094 L561.2622,152.6094 L551.2622,142.6094" fill="#FEFFDD" style="stroke:#181818;stroke-width:0.5;"/><text fill="#000000" font-family="sans-serif" font-size="13" lengthAdjust="spacing" textLength="336.7622" x="209.5" y="161.1045">TC-ST-005 corresponds to an independent reset endpoint:</text><text fill="#000000" font-family="sans-serif" font-size="13" lengthAdjust="spacing" textLength="182.0952" x="209.5" y="177.4561">POST /api/analyzer/reset/{type}</text><text fill="#000000" font-family="sans-serif" font-size="13" lengthAdjust="spacing" textLength="280.395" x="209.5" y="193.8076">This behavior is not modeled as an internal node</text><text fill="#000000" font-family="sans-serif" font-size="13" lengthAdjust="spacing" textLength="164.0171" x="209.5" y="210.1592">of the primary state machine</text></g><!--link *start* to UP--><g class="link" data-entity-1=".start." data-entity-2="UP" data-source-line="7" data-uid="lnk4" id="link_.start._UP"><path d="M143.5,64.8894 C143.5,84.9794 143.5,126.8194 143.5,153.7794" fill="none" id="*start*-to-UP" style="stroke:#181818;stroke-width:1;"/><polygon fill="#181818" points="143.5,159.7794,147.5,150.7794,143.5,154.7794,139.5,150.7794,143.5,159.7794" style="stroke:#181818;stroke-width:1;"/><text fill="#000000" font-family="sans-serif" font-size="13" lengthAdjust="spacing" textLength="94.6563" x="144.5" y="109.1045">Initialize session</text></g><!--link UP to DESCENDING--><g class="link" data-entity-1="UP" data-entity-2="DESCENDING" data-source-line="8" data-uid="lnk6" id="link_UP_DESCENDING"><path d="M118.42,199.7794 C103.85,211.8894 86.3,228.8694 75.5,247.6094 C67,262.3794 63.6114,275.449 61.4614,289.439" fill="none" id="UP-to-DESCENDING" style="stroke:#181818;stroke-width:1;"/><polygon fill="#181818" points="60.55,295.3694,65.8707,287.0814,61.3095,290.4274,57.9635,285.8662,60.55,295.3694" style="stroke:#181818;stroke-width:1;"/><text fill="#000000" font-family="sans-serif" font-size="13" lengthAdjust="spacing" textLength="126.4707" x="76.5" y="262.1045">Joint angle decreases</text></g><!--link DESCENDING to DOWN--><g class="link" data-entity-1="DESCENDING" data-entity-2="DOWN" data-source-line="9" data-uid="lnk8" id="link_DESCENDING_DOWN"><path d="M45.94,335.8094 C38.78,349.1194 32.04,367.3094 36.5,383.6094 C39.37,394.0994 41.841,399.6012 47.471,408.1912" fill="none" id="DESCENDING-to-DOWN" style="stroke:#181818;stroke-width:1;"/><polygon fill="#181818" points="50.76,413.2094,49.172,403.4894,48.0192,409.0275,42.481,407.8747,50.76,413.2094" style="stroke:#181818;stroke-width:1;"/><text fill="#000000" font-family="sans-serif" font-size="13" lengthAdjust="spacing" textLength="148.1416" x="37.5" y="380.1045">Reach the lowest position</text></g><!--link DOWN to ASCENDING--><g class="link" data-entity-1="DOWN" data-entity-2="ASCENDING" data-source-line="10" data-uid="lnk10" id="link_DOWN_ASCENDING"><path d="M81.02,453.7694 C98.44,475.2594 122.7539,505.2567 140.1739,526.7667" fill="none" id="DOWN-to-ASCENDING" style="stroke:#181818;stroke-width:1;"/><polygon fill="#181818" points="143.95,531.4294,141.3943,521.9179,140.8032,527.5438,135.1773,526.9527,143.95,531.4294" style="stroke:#181818;stroke-width:1;"/><text fill="#000000" font-family="sans-serif" font-size="13" lengthAdjust="spacing" textLength="62.1309" x="119.5" y="498.1045">Start rising</text></g><!--link ASCENDING to UP--><g class="link" data-entity-1="ASCENDING" data-entity-2="UP" data-source-line="11" data-uid="lnk11" id="link_ASCENDING_UP"><path d="M174.87,531.2394 C180.83,522.6494 187.04,512.1294 190.5,501.6094 C309.86,138.9994 217.46,272.3294 207.5,247.6094 C203.01,236.4594 186.2304,219.6065 169.4404,204.1965" fill="none" id="ASCENDING-to-UP" style="stroke:#181818;stroke-width:1;"/><polygon fill="#181818" points="165.02,200.1394,168.9459,209.1719,168.7037,203.5203,174.3553,203.2781,165.02,200.1394" style="stroke:#181818;stroke-width:1;"/><text fill="#000000" font-family="sans-serif" font-size="13" lengthAdjust="spacing" textLength="154.6543" x="233.5" y="380.1045">Return to upright / count++</text></g><!--SRC=[LP51Jm9138Nlyojwbf3rueM32G4qc0Y4nNWm7kfEOHjsE-DCaO3nlzjTFE1bCplz-lfUHraRWWTMePp7SoW_3wXGAYh1CrOr2pbNioUWDke9FEKgSLGEulAU9MB25ZwmskzIE8YVX2Oaq8IIhKIYLrIkqOSZomwss6JJVRjvX-7m7bvMC8Avi38sV2R8vgKROFTTUJeh9xF5TBvuDEmfi2YWxCosfoeH6kskaBvZ-RemTasM0BGcQCAHia8CcNlhFT2HuojfIvqK4cUpwCR_17k7Qz934j00XvXuLoiKK5be7GoSas0Rkzo6hV5kCncMc-7jxPqnAL6EGNpkcb60nLCa-rWKAv62_SGksSYjbkK62enSe61pEbCgUgJurbEa7xUfESC7rVZ5jcaxssHeWwU6F62-o2ibQxQI9sTskXMOvHRJ2NB_jktVszhSJe3SBm00]--></g></svg>