<svg xmlns="http://www.w3.org/2000/svg" xmlns:xlink="http://www.w3.org/1999/xlink" contentStyleType="text/css" data-diagram-type="STATE" height="561px" preserveAspectRatio="none" style="width:434px;height:561px;" version="1.1" viewBox="0 0 434 561" width="434px" zoomAndPan="magnify"><title>FitnessAI Squat State Machine</title><defs/><g><g class="title" data-source-line="1"><text fill="#000000" font-family="sans-serif" font-size="14" font-weight="bold" lengthAdjust="spacing" textLength="203.8203" x="108.0898" y="24.5332">FitnessAI Squat State Machine</text></g><ellipse cx="111.5" cy="54.6094" fill="#222222" rx="10" ry="10" style="stroke:#222222;stroke-width:1;"/><rect fill="#F1F1F1" height="40" rx="12.5" ry="12.5" style="stroke:#181818;stroke-width:0.5;" width="50" x="86.5" y="152.1094"/><text fill="#000000" font-family="sans-serif" font-size="14" lengthAdjust="spacing" textLength="19.4482" x="101.7759" y="177.8379">UP</text><rect fill="#F1F1F1" height="40" rx="12.5" ry="12.5" style="stroke:#181818;stroke-width:0.5;" width="103.3447" x="7" y="279.6094"/><text fill="#000000" font-family="sans-serif" font-size="14" lengthAdjust="spacing" textLength="93.3447" x="12" y="305.3379">DESCENDING</text><rect fill="#F1F1F1" height="40" rx="12.5" ry="12.5" style="stroke:#181818;stroke-width:0.5;" width="54.3242" x="44.5" y="397.6094"/><text fill="#000000" font-family="sans-serif" font-size="14" lengthAdjust="spacing" textLength="44.3242" x="49.5" y="423.3379">DOWN</text><rect fill="#F1F1F1" height="40" rx="12.5" ry="12.5" style="stroke:#181818;stroke-width:0.5;" width="93.2344" x="78" y="515.6094"/><text fill="#000000" font-family="sans-serif" font-size="14" lengthAdjust="spacing" textLength="83.2344" x="83" y="541.3379">ASCENDING</text><g class="entity" data-entity="GMN2" data-source-line="14" data-uid="ent0003" id="entity_GMN2"><path d="M172,142.6094 L172,168.1094 L136.84,172.1094 L172,176.1094 L172,201.6641 A0,0 0 0 0 172,201.6641 L427,201.6641 A0,0 0 0 0 427,201.6641 L427,152.6094 L417,142.6094 L172,142.6094 A0,0 0 0 0 172,142.6094" fill="#FEFFDD" style="stroke:#181818;stroke-width:0.5;"/><path d="M417,142.6094 L417,152.6094 L427,152.6094 L417,142.6094" fill="#FEFFDD" style="stroke:#181818;stroke-width:0.5;"/><text fill="#000000" font-family="sans-serif" font-size="13" lengthAdjust="spacing" textLength="195.0254" x="178" y="161.1045">TC-ST-005 &#23545;&#24212;&#29420;&#31435; reset &#25509;&#21475;&#65306;</text><text fill="#000000" font-family="sans-serif" font-size="13" lengthAdjust="spacing" textLength="182.0952" x="178" y="177.4561">POST /api/analyzer/reset/{type}</text><text fill="#000000" font-family="sans-serif" font-size="13" lengthAdjust="spacing" textLength="234" x="178" y="193.8076">&#35813;&#34892;&#20026;&#19981;&#20316;&#20026;&#20027;&#29366;&#24577;&#26426;&#20869;&#37096;&#29366;&#24577;&#33410;&#28857;&#34920;&#31034;</text></g><!--link *start* to UP--><g class="link" data-entity-1=".start." data-entity-2="UP" data-source-line="7" data-uid="lnk4" id="link_.start._UP"><path d="M111.5,64.6694 C111.5,83.3894 111.5,120.6794 111.5,145.9094" fill="none" id="*start*-to-UP" style="stroke:#181818;stroke-width:1;"/><polygon fill="#181818" points="111.5,151.9094,115.5,142.9094,111.5,146.9094,107.5,142.9094,111.5,151.9094" style="stroke:#181818;stroke-width:1;"/><text fill="#000000" font-family="sans-serif" font-size="13" lengthAdjust="spacing" textLength="88.8608" x="112.5" y="109.1045">&#21021;&#22987;&#21270; Session</text></g><!--link UP to DESCENDING--><g class="link" data-entity-1="UP" data-entity-2="DESCENDING" data-source-line="8" data-uid="lnk6" id="link_UP_DESCENDING"><path d="M87.25,192.3694 C76.23,202.6794 64.37,216.3894 58.5,231.6094 C52.6,246.9094 52.4526,259.7261 54.1826,273.5061" fill="none" id="UP-to-DESCENDING" style="stroke:#181818;stroke-width:1;"/><polygon fill="#181818" points="54.93,279.4594,57.7777,270.0312,54.3072,274.4983,49.8401,271.0277,54.93,279.4594" style="stroke:#181818;stroke-width:1;"/><text fill="#000000" font-family="sans-serif" font-size="13" lengthAdjust="spacing" textLength="78" x="59.5" y="246.1045">&#20851;&#33410;&#22841;&#35282;&#21464;&#23567;</text></g><!--link DESCENDING to DOWN--><g class="link" data-entity-1="DESCENDING" data-entity-2="DOWN" data-source-line="9" data-uid="lnk8" id="link_DESCENDING_DOWN"><path d="M55.07,319.7894 C53.22,333.2594 51.81,351.6394 54.5,367.6094 C56.21,377.7294 57.6002,382.9616 61.0302,391.8516" fill="none" id="DESCENDING-to-DOWN" style="stroke:#181818;stroke-width:1;"/><polygon fill="#181818" points="63.19,397.4494,63.6822,387.6128,61.3902,392.7845,56.2185,390.4925,63.19,397.4494" style="stroke:#181818;stroke-width:1;"/><text fill="#000000" font-family="sans-serif" font-size="13" lengthAdjust="spacing" textLength="65" x="55.5" y="364.1045">&#36827;&#20837;&#26368;&#20302;&#28857;</text></g><!--link DOWN to ASCENDING--><g class="link" data-entity-1="DOWN" data-entity-2="ASCENDING" data-source-line="10" data-uid="lnk10" id="link_DOWN_ASCENDING"><path d="M72.72,437.8694 C74.19,451.6894 77.41,470.4794 84.5,485.6094 C89.53,496.3494 93.4638,502.2561 100.9238,510.6861" fill="none" id="DOWN-to-ASCENDING" style="stroke:#181818;stroke-width:1;"/><polygon fill="#181818" points="104.9,515.1794,101.9311,505.7886,101.5865,511.435,95.9401,511.0903,104.9,515.1794" style="stroke:#181818;stroke-width:1;"/><text fill="#000000" font-family="sans-serif" font-size="13" lengthAdjust="spacing" textLength="52" x="85.5" y="482.1045">&#36215;&#36523;&#24320;&#22987;</text></g><!--link ASCENDING to UP--><g class="link" data-entity-1="ASCENDING" data-entity-2="UP" data-source-line="11" data-uid="lnk11" id="link_ASCENDING_UP"><path d="M133.3,515.4994 C136.92,506.6094 140.69,495.7794 142.5,485.6094 C162.27,374.4694 169.73,341.1594 142.5,231.6094 C139.01,217.5594 134.5903,208.2658 127.8103,197.2758" fill="none" id="ASCENDING-to-UP" style="stroke:#181818;stroke-width:1;"/><polygon fill="#181818" points="124.66,192.1694,125.9811,201.9292,127.2852,196.4247,132.7897,197.7288,124.66,192.1694" style="stroke:#181818;stroke-width:1;"/><text fill="#000000" font-family="sans-serif" font-size="13" lengthAdjust="spacing" textLength="109.8208" x="161.5" y="364.1045">&#24674;&#22797;&#30452;&#31435; / count++</text></g><!--SRC=[LP3FIm915CVlyrUySoBRfKk7GDJ2GogiqI4wJEwaWpgxxKw4HQ264La94H5f1qjHC33efrlHF-FiRgV-XMQtYztUlE_dVUVx7gUyI62HSaOiAv80TMiRSr0vvWIMSJPF6K4eJpK2f6JmCcZ4ofhKu5Hdo2fGPc0Jbs03PmivKzzcMbGlwYPm4pDBIeJnAShAOqtVeIm7cxXeIT-rcNK8XnTW9Gtp88vkHByXJYv1bL5yVzdsrLXSZSQJiKHooQVgZzvnJNJ7NlzSDA_4GnDDwG6UMarAqFjgYNhFQLScdsTkROo2jgz7fjoyvrVF7egFYlmPHVxP19cSwgtedhgj9tVO00MoSaCU2Y74T7aUa-Ro7FHDYQ9CDAncmhEpSo16Os5Vk8rxVyGa5k7WdFL4y-xdungbKse656nG1JDSBEyIKmaGPO-N3RAFl57FwvnCtkp9s-dainqKx-xnYrEfEcrR7DQ_3mP_Jta4kPNN6RXT6n6cWHy9_G80]--></g></svg>