<svg xmlns="http://www.w3.org/2000/svg" xmlns:xlink="http://www.w3.org/1999/xlink" contentStyleType="text/css" data-diagram-type="ACTIVITY" height="562px" preserveAspectRatio="none" style="width:279px;height:562px;" version="1.1" viewBox="0 0 279 562" width="279px" zoomAndPan="magnify"><title>AutoTestDesign in Test Workflow</title><defs/><g><g class="title" data-source-line="1"><text fill="#000000" font-family="sans-serif" font-size="14" font-weight="bold" lengthAdjust="spacing" textLength="223.2275" x="26.3979" y="34.5332">AutoTestDesign in Test Workflow</text></g><ellipse cx="139.5117" cy="58.6094" fill="#222222" rx="10" ry="10" style="stroke:#222222;stroke-width:1;"/><rect fill="#F1F1F1" height="35.0938" rx="12.5" ry="12.5" style="stroke:#181818;stroke-width:0.5;" width="208.6836" x="35.1699" y="88.6094"/><text fill="#000000" font-family="sans-serif" font-size="12" lengthAdjust="spacing" textLength="188.6836" x="45.1699" y="111.0664">&#27979;&#35797;&#35774;&#35745;&#24037;&#31243;&#24072;&#36755;&#20837; FitnessAI &#38656;&#27714;</text><rect fill="#F1F1F1" height="35.0938" rx="12.5" ry="12.5" style="stroke:#181818;stroke-width:0.5;" width="162.0488" x="58.4873" y="143.7031"/><text fill="#000000" font-family="sans-serif" font-size="12" lengthAdjust="spacing" textLength="142.0488" x="68.4873" y="166.1602">AutoTestDesign &#36816;&#34892; QRA</text><rect fill="#F1F1F1" height="35.0938" rx="12.5" ry="12.5" style="stroke:#181818;stroke-width:0.5;" width="152" x="63.5117" y="198.7969"/><text fill="#000000" font-family="sans-serif" font-size="12" lengthAdjust="spacing" textLength="132" x="73.5117" y="221.2539">&#29983;&#25104;&#39118;&#38505;&#30697;&#38453;&#24182;&#20132;&#20114;&#23457;&#26597;</text><rect fill="#F1F1F1" height="35.0938" rx="12.5" ry="12.5" style="stroke:#181818;stroke-width:0.5;" width="126.002" x="76.5107" y="253.8906"/><text fill="#000000" font-family="sans-serif" font-size="12" lengthAdjust="spacing" textLength="106.002" x="86.5107" y="276.3477">&#29983;&#25104;&#40657;&#30418; / &#30333;&#30418;&#29992;&#20363;</text><rect fill="#F1F1F1" height="35.0938" rx="12.5" ry="12.5" style="stroke:#181818;stroke-width:0.5;" width="153.3594" x="62.832" y="308.9844"/><text fill="#000000" font-family="sans-serif" font-size="12" lengthAdjust="spacing" textLength="133.3594" x="72.832" y="331.4414">&#23548;&#20986; CSV / JSON / Excel</text><rect fill="#F1F1F1" height="35.0938" rx="12.5" ry="12.5" style="stroke:#181818;stroke-width:0.5;" width="257.0234" x="11" y="364.0781"/><text fill="#000000" font-family="sans-serif" font-size="12" lengthAdjust="spacing" textLength="237.0234" x="21" y="386.5352">&#27979;&#35797;&#25191;&#34892;&#24037;&#31243;&#24072;&#32534;&#20889; JUnit5 + MockMvc &#33050;&#26412;</text><rect fill="#F1F1F1" height="35.0938" rx="12.5" ry="12.5" style="stroke:#181818;stroke-width:0.5;" width="145.3496" x="66.8369" y="419.1719"/><text fill="#000000" font-family="sans-serif" font-size="12" lengthAdjust="spacing" textLength="125.3496" x="76.8369" y="441.6289">&#36816;&#34892;&#33050;&#26412;&#27979;&#35797; FitnessAI</text><rect fill="#F1F1F1" height="35.0938" rx="12.5" ry="12.5" style="stroke:#181818;stroke-width:0.5;" width="128" x="75.5117" y="474.2656"/><text fill="#000000" font-family="sans-serif" font-size="12" lengthAdjust="spacing" textLength="108" x="85.5117" y="496.7227">&#35760;&#24405;&#32467;&#26524;&#24182;&#27719;&#24635;&#20998;&#26512;</text><ellipse cx="139.5117" cy="540.3594" fill="none" rx="11" ry="11" style="stroke:#222222;stroke-width:1;"/><ellipse cx="139.5117" cy="540.3594" fill="#222222" rx="6" ry="6" style="stroke:#222222;stroke-width:1;"/><line style="stroke:#181818;stroke-width:1;" x1="139.5117" x2="139.5117" y1="68.6094" y2="88.6094"/><polygon fill="#181818" points="135.5117,78.6094,139.5117,88.6094,143.5117,78.6094,139.5117,82.6094" style="stroke:#181818;stroke-width:1;"/><line style="stroke:#181818;stroke-width:1;" x1="139.5117" x2="139.5117" y1="123.7031" y2="143.7031"/><polygon fill="#181818" points="135.5117,133.7031,139.5117,143.7031,143.5117,133.7031,139.5117,137.7031" style="stroke:#181818;stroke-width:1;"/><line style="stroke:#181818;stroke-width:1;" x1="139.5117" x2="139.5117" y1="178.7969" y2="198.7969"/><polygon fill="#181818" points="135.5117,188.7969,139.5117,198.7969,143.5117,188.7969,139.5117,192.7969" style="stroke:#181818;stroke-width:1;"/><line style="stroke:#181818;stroke-width:1;" x1="139.5117" x2="139.5117" y1="233.8906" y2="253.8906"/><polygon fill="#181818" points="135.5117,243.8906,139.5117,253.8906,143.5117,243.8906,139.5117,247.8906" style="stroke:#181818;stroke-width:1;"/><line style="stroke:#181818;stroke-width:1;" x1="139.5117" x2="139.5117" y1="288.9844" y2="308.9844"/><polygon fill="#181818" points="135.5117,298.9844,139.5117,308.9844,143.5117,298.9844,139.5117,302.9844" style="stroke:#181818;stroke-width:1;"/><line style="stroke:#181818;stroke-width:1;" x1="139.5117" x2="139.5117" y1="344.0781" y2="364.0781"/><polygon fill="#181818" points="135.5117,354.0781,139.5117,364.0781,143.5117,354.0781,139.5117,358.0781" style="stroke:#181818;stroke-width:1;"/><line style="stroke:#181818;stroke-width:1;" x1="139.5117" x2="139.5117" y1="399.1719" y2="419.1719"/><polygon fill="#181818" points="135.5117,409.1719,139.5117,419.1719,143.5117,409.1719,139.5117,413.1719" style="stroke:#181818;stroke-width:1;"/><line style="stroke:#181818;stroke-width:1;" x1="139.5117" x2="139.5117" y1="454.2656" y2="474.2656"/><polygon fill="#181818" points="135.5117,464.2656,139.5117,474.2656,143.5117,464.2656,139.5117,468.2656" style="stroke:#181818;stroke-width:1;"/><line style="stroke:#181818;stroke-width:1;" x1="139.5117" x2="139.5117" y1="509.3594" y2="529.3594"/><polygon fill="#181818" points="135.5117,519.3594,139.5117,529.3594,143.5117,519.3594,139.5117,523.3594" style="stroke:#181818;stroke-width:1;"/><!--SRC=[NP3BJW8n58RtynHdxyAL6rWHr4GID8gNzJWCE9cn9TCYBebHm60CSZ6Y14AK28aPP84NRhuCRMVUmXAY65Vjd-_qdE-K6jJI8P2aU5SdT5KdHXo1WM2Mu03RPip2AKKXfe4IggqUmw6gcN4R9r4qY2ri0xLLH2JI4VrJHOxKA4uPA0unrIAwR41Lcoe-ti-xtOhhJ5odoTvRefrd7pbtKc8NBLWtAD892Mo0LqlptfbVyVtpShyARlCAjdS2aeboW-SAtkErL-s8HiUxwxFFj-dWQJeeCgV96wr5pV16F1HX6KHrB2-Yt9vEyfAoxeXb1n2Cx4iMYcnjocFjLDCj_uyeltoM0tz5nUYMPQeGsaC6NO4b26FD39zeu9xVyzgBV3KNdCTvXyLMC-oyid5534kyNfEol9VbwI7BPNYzu9S_X1FADm00]--></g></svg>