<svg xmlns="http://www.w3.org/2000/svg" xmlns:xlink="http://www.w3.org/1999/xlink" contentStyleType="text/css" data-diagram-type="DESCRIPTION" height="290px" preserveAspectRatio="none" style="width:1507px;height:290px;" version="1.1" viewBox="0 0 1507 290" width="1507px" zoomAndPan="magnify"><title>FitnessAI Test Scope Architecture</title><defs/><g><g class="title" data-source-line="1"><text fill="#000000" font-family="sans-serif" font-size="14" font-weight="bold" lengthAdjust="spacing" textLength="227.9512" x="632.7207" y="24.5332">FitnessAI Test Scope Architecture</text></g><!--entity Browser--><g class="entity" data-entity="Browser" data-source-line="7" data-uid="ent0002" id="entity_Browser"><rect fill="#F1F1F1" height="65.2188" rx="2.5" ry="2.5" style="stroke:#181818;stroke-width:0.5;" width="159.4375" x="7" y="145.6094"/><rect fill="#F1F1F1" height="10" style="stroke:#181818;stroke-width:0.5;" width="15" x="146.4375" y="150.6094"/><rect fill="#F1F1F1" height="2" style="stroke:#181818;stroke-width:0.5;" width="4" x="144.4375" y="152.6094"/><rect fill="#F1F1F1" height="2" style="stroke:#181818;stroke-width:0.5;" width="4" x="144.4375" y="156.6094"/><text fill="#000000" font-family="sans-serif" font-size="14" lengthAdjust="spacing" textLength="51.3447" x="22" y="180.1426">Browser</text><text fill="#000000" font-family="sans-serif" font-size="14" lengthAdjust="spacing" textLength="119.4375" x="22" y="197.752">React + TypeScript</text></g><!--entity MP--><g class="entity" data-entity="MP" data-source-line="8" data-uid="ent0003" id="entity_MP"><rect fill="#F1F1F1" height="65.2188" rx="2.5" ry="2.5" style="stroke:#181818;stroke-width:0.5;" width="141.9512" x="306" y="145.6094"/><rect fill="#F1F1F1" height="10" style="stroke:#181818;stroke-width:0.5;" width="15" x="427.9512" y="150.6094"/><rect fill="#F1F1F1" height="2" style="stroke:#181818;stroke-width:0.5;" width="4" x="425.9512" y="152.6094"/><rect fill="#F1F1F1" height="2" style="stroke:#181818;stroke-width:0.5;" width="4" x="425.9512" y="156.6094"/><text fill="#000000" font-family="sans-serif" font-size="14" lengthAdjust="spacing" textLength="101.9512" x="321" y="180.1426">MediaPipe Pose</text><text fill="#000000" font-family="sans-serif" font-size="14" lengthAdjust="spacing" textLength="84.041" x="321" y="197.752">33 landmarks</text></g><!--entity Backend--><g class="entity" data-entity="Backend" data-source-line="9" data-uid="ent0004" id="entity_Backend"><rect fill="#F1F1F1" height="65.2188" rx="2.5" ry="2.5" style="stroke:#181818;stroke-width:0.5;" width="171.5303" x="582" y="145.6094"/><rect fill="#F1F1F1" height="10" style="stroke:#181818;stroke-width:0.5;" width="15" x="733.5303" y="150.6094"/><rect fill="#F1F1F1" height="2" style="stroke:#181818;stroke-width:0.5;" width="4" x="731.5303" y="152.6094"/><rect fill="#F1F1F1" height="2" style="stroke:#181818;stroke-width:0.5;" width="4" x="731.5303" y="156.6094"/><text fill="#000000" font-family="sans-serif" font-size="14" lengthAdjust="spacing" textLength="131.5303" x="597" y="180.1426">Spring Boot Backend</text><text fill="#000000" font-family="sans-serif" font-size="14" lengthAdjust="spacing" textLength="49.0342" x="597" y="197.752">Java 17</text></g><!--entity EC--><g class="entity" data-entity="EC" data-source-line="10" data-uid="ent0005" id="entity_EC"><rect fill="#F1F1F1" height="47.6094" rx="2.5" ry="2.5" style="stroke:#181818;stroke-width:0.5;" width="154.3721" x="815" y="71.1094"/><rect fill="#F1F1F1" height="10" style="stroke:#181818;stroke-width:0.5;" width="15" x="949.3721" y="76.1094"/><rect fill="#F1F1F1" height="2" style="stroke:#181818;stroke-width:0.5;" width="4" x="947.3721" y="78.1094"/><rect fill="#F1F1F1" height="2" style="stroke:#181818;stroke-width:0.5;" width="4" x="947.3721" y="82.1094"/><text fill="#000000" font-family="sans-serif" font-size="14" lengthAdjust="spacing" textLength="114.3721" x="830" y="105.6426">ExerciseController</text></g><!--entity UC--><g class="entity" data-entity="UC" data-source-line="11" data-uid="ent0006" id="entity_UC"><rect fill="#F1F1F1" height="47.6094" rx="2.5" ry="2.5" style="stroke:#181818;stroke-width:0.5;" width="130.248" x="827" y="154.1094"/><rect fill="#F1F1F1" height="10" style="stroke:#181818;stroke-width:0.5;" width="15" x="937.248" y="159.1094"/><rect fill="#F1F1F1" height="2" style="stroke:#181818;stroke-width:0.5;" width="4" x="935.248" y="161.1094"/><rect fill="#F1F1F1" height="2" style="stroke:#181818;stroke-width:0.5;" width="4" x="935.248" y="165.1094"/><text fill="#000000" font-family="sans-serif" font-size="14" lengthAdjust="spacing" textLength="90.248" x="842" y="188.6426">UserController</text></g><!--entity MC--><g class="entity" data-entity="MC" data-source-line="12" data-uid="ent0007" id="entity_MC"><rect fill="#F1F1F1" height="47.6094" rx="2.5" ry="2.5" style="stroke:#181818;stroke-width:0.5;" width="131.0342" x="826.5" y="237.1094"/><rect fill="#F1F1F1" height="10" style="stroke:#181818;stroke-width:0.5;" width="15" x="937.5342" y="242.1094"/><rect fill="#F1F1F1" height="2" style="stroke:#181818;stroke-width:0.5;" width="4" x="935.5342" y="244.1094"/><rect fill="#F1F1F1" height="2" style="stroke:#181818;stroke-width:0.5;" width="4" x="935.5342" y="248.1094"/><text fill="#000000" font-family="sans-serif" font-size="14" lengthAdjust="spacing" textLength="91.0342" x="841.5" y="271.6426">MainController</text></g><!--entity PAF--><g class="entity" data-entity="PAF" data-source-line="13" data-uid="ent0008" id="entity_PAF"><rect fill="#F1F1F1" height="47.6094" rx="2.5" ry="2.5" style="stroke:#181818;stroke-width:0.5;" width="173.0547" x="1030" y="67.1094"/><rect fill="#F1F1F1" height="10" style="stroke:#181818;stroke-width:0.5;" width="15" x="1183.0547" y="72.1094"/><rect fill="#F1F1F1" height="2" style="stroke:#181818;stroke-width:0.5;" width="4" x="1181.0547" y="74.1094"/><rect fill="#F1F1F1" height="2" style="stroke:#181818;stroke-width:0.5;" width="4" x="1181.0547" y="78.1094"/><text fill="#000000" font-family="sans-serif" font-size="14" lengthAdjust="spacing" textLength="133.0547" x="1045" y="101.6426">PoseAnalyzerFactory</text></g><!--entity Analyzer--><g class="entity" data-entity="Analyzer" data-source-line="14" data-uid="ent0009" id="entity_Analyzer"><rect fill="#F1F1F1" height="82.8281" rx="2.5" ry="2.5" style="stroke:#181818;stroke-width:0.5;" width="168.3926" x="1333" y="45.6094"/><rect fill="#F1F1F1" height="10" style="stroke:#181818;stroke-width:0.5;" width="15" x="1481.3926" y="50.6094"/><rect fill="#F1F1F1" height="2" style="stroke:#181818;stroke-width:0.5;" width="4" x="1479.3926" y="52.6094"/><rect fill="#F1F1F1" height="2" style="stroke:#181818;stroke-width:0.5;" width="4" x="1479.3926" y="56.6094"/><text fill="#000000" font-family="sans-serif" font-size="14" lengthAdjust="spacing" textLength="103.5166" x="1348" y="80.1426">Squat / Pushup /</text><text fill="#000000" font-family="sans-serif" font-size="14" lengthAdjust="spacing" textLength="128.3926" x="1348" y="97.752">Plank / JumpingJack</text><text fill="#000000" font-family="sans-serif" font-size="14" lengthAdjust="spacing" textLength="54.4688" x="1348" y="115.3613">Analyzer</text></g><!--entity US--><g class="entity" data-entity="US" data-source-line="15" data-uid="ent0010" id="entity_US"><rect fill="#F1F1F1" height="47.6094" rx="2.5" ry="2.5" style="stroke:#181818;stroke-width:0.5;" width="116.2412" x="1058.5" y="158.1094"/><rect fill="#F1F1F1" height="10" style="stroke:#181818;stroke-width:0.5;" width="15" x="1154.7412" y="163.1094"/><rect fill="#F1F1F1" height="2" style="stroke:#181818;stroke-width:0.5;" width="4" x="1152.7412" y="165.1094"/><rect fill="#F1F1F1" height="2" style="stroke:#181818;stroke-width:0.5;" width="4" x="1152.7412" y="169.1094"/><text fill="#000000" font-family="sans-serif" font-size="14" lengthAdjust="spacing" textLength="76.2412" x="1073.5" y="192.6426">UserService</text></g><!--entity DB--><g class="entity" data-entity="DB" data-source-line="16" data-uid="ent0011" id="entity_DB"><path d="M1369,173.6094 C1369,163.6094 1417.1309,163.6094 1417.1309,163.6094 C1417.1309,163.6094 1465.2617,163.6094 1465.2617,173.6094 L1465.2617,200.2188 C1465.2617,210.2188 1417.1309,210.2188 1417.1309,210.2188 C1417.1309,210.2188 1369,210.2188 1369,200.2188 L1369,173.6094" fill="#F1F1F1" style="stroke:#181818;stroke-width:0.5;"/><path d="M1369,173.6094 C1369,183.6094 1417.1309,183.6094 1417.1309,183.6094 C1417.1309,183.6094 1465.2617,183.6094 1465.2617,173.6094" fill="none" style="stroke:#181818;stroke-width:0.5;"/><text fill="#000000" font-family="sans-serif" font-size="14" lengthAdjust="spacing" textLength="76.2617" x="1379" y="202.1426">PostgreSQL</text></g><!--link Browser to MP--><g class="link" data-entity-1="Browser" data-entity-2="MP" data-source-line="18" data-uid="lnk12" id="link_Browser_MP"><path d="M166.33,178.1094 C209.88,178.1094 257.51,178.1094 299.63,178.1094" fill="none" id="Browser-to-MP" style="stroke:#181818;stroke-width:1;"/><polygon fill="#181818" points="305.63,178.1094,296.63,174.1094,300.63,178.1094,296.63,182.1094,305.63,178.1094" style="stroke:#181818;stroke-width:1;"/><text fill="#000000" font-family="sans-serif" font-size="13" lengthAdjust="spacing" textLength="78.0381" x="197" y="174.6045">Camera input</text></g><!--link MP to Backend--><g class="link" data-entity-1="MP" data-entity-2="Backend" data-source-line="19" data-uid="lnk13" id="link_MP_Backend"><path d="M448.33,178.1094 C488.59,178.1094 533.4,178.1094 575.91,178.1094" fill="none" id="MP-to-Backend" style="stroke:#181818;stroke-width:1;"/><polygon fill="#181818" points="581.91,178.1094,572.91,174.1094,576.91,178.1094,572.91,182.1094,581.91,178.1094" style="stroke:#181818;stroke-width:1;"/><text fill="#000000" font-family="sans-serif" font-size="13" lengthAdjust="spacing" textLength="72.2236" x="479" y="174.6045">HTTP REST</text></g><!--link Backend to EC--><g class="link" data-entity-1="Backend" data-entity-2="EC" data-source-line="20" data-uid="lnk14" id="link_Backend_EC"><path d="M754.2,146.2594 C778.28,137.2494 798.4699,129.7004 821.0999,121.2404" fill="none" id="Backend-to-EC" style="stroke:#181818;stroke-width:1;"/><polygon fill="#181818" points="826.72,119.1394,816.8891,118.5442,822.0366,120.8902,819.6905,126.0377,826.72,119.1394" style="stroke:#181818;stroke-width:1;"/></g><!--link Backend to UC--><g class="link" data-entity-1="Backend" data-entity-2="UC" data-source-line="21" data-uid="lnk15" id="link_Backend_UC"><path d="M754.2,178.1094 C778.28,178.1094 798.09,178.1094 820.72,178.1094" fill="none" id="Backend-to-UC" style="stroke:#181818;stroke-width:1;"/><polygon fill="#181818" points="826.72,178.1094,817.72,174.1094,821.72,178.1094,817.72,182.1094,826.72,178.1094" style="stroke:#181818;stroke-width:1;"/></g><!--link Backend to MC--><g class="link" data-entity-1="Backend" data-entity-2="MC" data-source-line="22" data-uid="lnk16" id="link_Backend_MC"><path d="M754.2,209.9594 C778.28,218.9694 798.4699,226.5184 821.0999,234.9784" fill="none" id="Backend-to-MC" style="stroke:#181818;stroke-width:1;"/><polygon fill="#181818" points="826.72,237.0794,819.6905,230.1811,822.0366,235.3285,816.8891,237.6746,826.72,237.0794" style="stroke:#181818;stroke-width:1;"/></g><!--link EC to PAF--><g class="link" data-entity-1="EC" data-entity-2="PAF" data-source-line="23" data-uid="lnk17" id="link_EC_PAF"><path d="M969.26,93.7394 C988.76,93.3894 1003.851,93.1177 1023.791,92.7577" fill="none" id="EC-to-PAF" style="stroke:#181818;stroke-width:1;"/><polygon fill="#181818" points="1029.79,92.6494,1020.7193,88.8125,1024.7908,92.7396,1020.8637,96.8112,1029.79,92.6494" style="stroke:#181818;stroke-width:1;"/></g><!--link PAF to Analyzer--><g class="link" data-entity-1="PAF" data-entity-2="Analyzer" data-source-line="24" data-uid="lnk18" id="link_PAF_Analyzer"><path d="M1203.04,89.9594 C1243.78,89.4194 1286.3205,88.8495 1326.7705,88.3095" fill="none" id="PAF-to-Analyzer" style="stroke:#181818;stroke-width:1;"/><polygon fill="#181818" points="1332.77,88.2294,1323.7174,84.3499,1327.7704,88.2961,1323.8242,92.3492,1332.77,88.2294" style="stroke:#181818;stroke-width:1;"/></g><!--link UC to US--><g class="link" data-entity-1="UC" data-entity-2="US" data-source-line="25" data-uid="lnk19" id="link_UC_US"><path d="M957.06,179.2594 C989.02,179.8394 1021.3709,180.4228 1052.3309,180.9728" fill="none" id="UC-to-US" style="stroke:#181818;stroke-width:1;"/><polygon fill="#181818" points="1058.33,181.0794,1049.4025,176.9201,1053.3308,180.9906,1049.2604,184.9189,1058.33,181.0794" style="stroke:#181818;stroke-width:1;"/></g><!--link US to DB--><g class="link" data-entity-1="US" data-entity-2="DB" data-source-line="26" data-uid="lnk20" id="link_US_DB"><path d="M1174.7,183.0694 C1231.07,184.0094 1310.1908,185.339 1362.8108,186.219" fill="none" id="US-to-DB" style="stroke:#181818;stroke-width:1;"/><polygon fill="#181818" points="1368.81,186.3194,1359.8781,182.1694,1363.8107,186.2358,1359.7444,190.1683,1368.81,186.3194" style="stroke:#181818;stroke-width:1;"/><text fill="#000000" font-family="sans-serif" font-size="13" lengthAdjust="spacing" textLength="68.6245" x="1234" y="180.6045">JPA / JDBC</text></g><!--SRC=[NL71Rjim3BthAuXUXw8OUXYmmm3RIR052-3LziqNLcOJ8RRaKNIxxEj7AydWv620v7katdiM9pt1necd6BCVK5CKg6mO2JAs1oTaPM8o9XwT7v5nW5Uqnps7oNT5w0E3CFge47bPiE81k_3X_1xUi8zaUdeJa03izWU1ph4UTi4ROyCm1g_By91p-8Z4hNyXj0AVe3wDL5bsepm0HhZWovKTTGvBftBB4Adrpy_Ge-y6v6DCExjoIQz6dYNb8GZaweDyr_ejlYDy_d9-uZnSxgp_45iNgGXUEFGzSMAkYoMfKLrtXEQ6i4FdxmYx6yAiF_FOd_uIRzH-u5DYbTdcni7l2GMUe9pYOHhXgVMb6ZxgP3iDevhRgeFMNo-b4zVcNd15_EuidTLMfaF1LuoKjCYUgVhrCs6ht9XBzl3u-4qpXQzGu42CeFzx4gEJ6RYaf-ZtkYxXPLtLvZgRSSrisJQthUQnBb8rUzOlrV_5DsTCXJPLgbQvFhGjizdxAY_CFm00]--></g></svg>