<svg xmlns="http://www.w3.org/2000/svg" xmlns:xlink="http://www.w3.org/1999/xlink" contentStyleType="text/css" data-diagram-type="ACTIVITY" height="562px" preserveAspectRatio="none" style="width:377px;height:562px;" version="1.1" viewBox="0 0 377 562" width="377px" zoomAndPan="magnify"><title>AutoTestDesign in Test Workflow</title><defs/><g><g class="title" data-source-line="1"><text fill="#000000" font-family="sans-serif" font-size="14" font-weight="bold" lengthAdjust="spacing" textLength="223.2275" x="75.7837" y="34.5332">AutoTestDesign in Test Workflow</text></g><ellipse cx="188.8975" cy="58.6094" fill="#222222" rx="10" ry="10" style="stroke:#222222;stroke-width:1;"/><rect fill="#F1F1F1" height="35.0938" rx="12.5" ry="12.5" style="stroke:#181818;stroke-width:0.5;" width="294.1426" x="41.8262" y="88.6094"/><text fill="#000000" font-family="sans-serif" font-size="12" lengthAdjust="spacing" textLength="274.1426" x="51.8262" y="111.0664">Test design engineer inputs FitnessAI requirements</text><rect fill="#F1F1F1" height="35.0938" rx="12.5" ry="12.5" style="stroke:#181818;stroke-width:0.5;" width="161.3926" x="108.2012" y="143.7031"/><text fill="#000000" font-family="sans-serif" font-size="12" lengthAdjust="spacing" textLength="141.3926" x="118.2012" y="166.1602">AutoTestDesign runs QRA</text><rect fill="#F1F1F1" height="35.0938" rx="12.5" ry="12.5" style="stroke:#181818;stroke-width:0.5;" width="285.4355" x="46.1797" y="198.7969"/><text fill="#000000" font-family="sans-serif" font-size="12" lengthAdjust="spacing" textLength="265.4355" x="56.1797" y="221.2539">Generate the risk matrix and review it interactively</text><rect fill="#F1F1F1" height="35.0938" rx="12.5" ry="12.5" style="stroke:#181818;stroke-width:0.5;" width="260.1289" x="58.833" y="253.8906"/><text fill="#000000" font-family="sans-serif" font-size="12" lengthAdjust="spacing" textLength="240.1289" x="68.833" y="276.3477">Generate black-box and white-box test cases</text><rect fill="#F1F1F1" height="35.0938" rx="12.5" ry="12.5" style="stroke:#181818;stroke-width:0.5;" width="209.3867" x="84.2041" y="308.9844"/><text fill="#000000" font-family="sans-serif" font-size="12" lengthAdjust="spacing" textLength="189.3867" x="94.2041" y="331.4414">Export CSV / JSON / Excel artifacts</text><rect fill="#F1F1F1" height="35.0938" rx="12.5" ry="12.5" style="stroke:#181818;stroke-width:0.5;" width="355.7949" x="11" y="364.0781"/><text fill="#000000" font-family="sans-serif" font-size="12" lengthAdjust="spacing" textLength="335.7949" x="21" y="386.5352">Test execution engineer implements JUnit 5 + MockMvc scripts</text><rect fill="#F1F1F1" height="35.0938" rx="12.5" ry="12.5" style="stroke:#181818;stroke-width:0.5;" width="216.7578" x="80.5186" y="419.1719"/><text fill="#000000" font-family="sans-serif" font-size="12" lengthAdjust="spacing" textLength="196.7578" x="90.5186" y="441.6289">Execute the scripts against FitnessAI</text><rect fill="#F1F1F1" height="35.0938" rx="12.5" ry="12.5" style="stroke:#181818;stroke-width:0.5;" width="251.4629" x="63.166" y="474.2656"/><text fill="#000000" font-family="sans-serif" font-size="12" lengthAdjust="spacing" textLength="231.4629" x="73.166" y="496.7227">Record results and consolidate the analysis</text><ellipse cx="188.8975" cy="540.3594" fill="none" rx="11" ry="11" style="stroke:#222222;stroke-width:1;"/><ellipse cx="188.8975" cy="540.3594" fill="#222222" rx="6" ry="6" style="stroke:#222222;stroke-width:1;"/><line style="stroke:#181818;stroke-width:1;" x1="188.8975" x2="188.8975" y1="68.6094" y2="88.6094"/><polygon fill="#181818" points="184.8975,78.6094,188.8975,88.6094,192.8975,78.6094,188.8975,82.6094" style="stroke:#181818;stroke-width:1;"/><line style="stroke:#181818;stroke-width:1;" x1="188.8975" x2="188.8975" y1="123.7031" y2="143.7031"/><polygon fill="#181818" points="184.8975,133.7031,188.8975,143.7031,192.8975,133.7031,188.8975,137.7031" style="stroke:#181818;stroke-width:1;"/><line style="stroke:#181818;stroke-width:1;" x1="188.8975" x2="188.8975" y1="178.7969" y2="198.7969"/><polygon fill="#181818" points="184.8975,188.7969,188.8975,198.7969,192.8975,188.7969,188.8975,192.7969" style="stroke:#181818;stroke-width:1;"/><line style="stroke:#181818;stroke-width:1;" x1="188.8975" x2="188.8975" y1="233.8906" y2="253.8906"/><polygon fill="#181818" points="184.8975,243.8906,188.8975,253.8906,192.8975,243.8906,188.8975,247.8906" style="stroke:#181818;stroke-width:1;"/><line style="stroke:#181818;stroke-width:1;" x1="188.8975" x2="188.8975" y1="288.9844" y2="308.9844"/><polygon fill="#181818" points="184.8975,298.9844,188.8975,308.9844,192.8975,298.9844,188.8975,302.9844" style="stroke:#181818;stroke-width:1;"/><line style="stroke:#181818;stroke-width:1;" x1="188.8975" x2="188.8975" y1="344.0781" y2="364.0781"/><polygon fill="#181818" points="184.8975,354.0781,188.8975,364.0781,192.8975,354.0781,188.8975,358.0781" style="stroke:#181818;stroke-width:1;"/><line style="stroke:#181818;stroke-width:1;" x1="188.8975" x2="188.8975" y1="399.1719" y2="419.1719"/><polygon fill="#181818" points="184.8975,409.1719,188.8975,419.1719,192.8975,409.1719,188.8975,413.1719" style="stroke:#181818;stroke-width:1;"/><line style="stroke:#181818;stroke-width:1;" x1="188.8975" x2="188.8975" y1="454.2656" y2="474.2656"/><polygon fill="#181818" points="184.8975,464.2656,188.8975,474.2656,192.8975,464.2656,188.8975,468.2656" style="stroke:#181818;stroke-width:1;"/><line style="stroke:#181818;stroke-width:1;" x1="188.8975" x2="188.8975" y1="509.3594" y2="529.3594"/><polygon fill="#181818" points="184.8975,519.3594,188.8975,529.3594,192.8975,519.3594,188.8975,523.3594" style="stroke:#181818;stroke-width:1;"/><!--SRC=[NL0xJyD03DxpAxmZnCHIfgeKHAM2Q7dCrukRMhduWkqqwR_7QG1LJ2UVlwUDB27CEyjlg7QFIXK3COmJV6QfzodtHQ4rSHiaDB0BiQuaTrmkSie29e7LLyXsWT93A7DFNC4-94KNi21MpCwovUI2N14ZYjkrdIaya36gpfz0yAiZmSOrzQwO_Kid7IkyRkQ-UKH62OPW1mGXhQ499ZH0uD9LZeGzaBc1EImQ7J6TBccxv6skTtaYz0SoF4ysnen1SRHV3cqMWyNs0svWjNrvzcSvH4pWbMZlkYFgt0m7Z9rHlYpNj6bg0gjtzZ2tS0Nh7ElrCO96eTOcav4v5VdvXL05ObVzEupZDXYpZDsqIoF4OyVCcXELltS87D99oLNLSbjy0m00]--></g></svg>