<svg xmlns="http://www.w3.org/2000/svg" xmlns:xlink="http://www.w3.org/1999/xlink" contentStyleType="text/css" data-diagram-type="DESCRIPTION" height="290px" preserveAspectRatio="none" style="width:1467px;height:290px;" version="1.1" viewBox="0 0 1467 290" width="1467px" zoomAndPan="magnify"><title>FitnessAI Test Scope Architecture</title><defs/><g><g class="title" data-source-line="1"><text fill="#000000" font-family="sans-serif" font-size="14" font-weight="bold" lengthAdjust="spacing" textLength="227.9512" x="612.7207" y="24.5332">FitnessAI Test Scope Architecture</text></g><!--entity Browser--><g class="entity" data-entity="Browser" data-source-line="7" data-uid="ent0002" id="entity_Browser"><rect fill="#F1F1F1" height="65.2188" rx="2.5" ry="2.5" style="stroke:#181818;stroke-width:0.5;" width="159.4375" x="7" y="145.6094"/><rect fill="#F1F1F1" height="10" style="stroke:#181818;stroke-width:0.5;" width="15" x="146.4375" y="150.6094"/><rect fill="#F1F1F1" height="2" style="stroke:#181818;stroke-width:0.5;" width="4" x="144.4375" y="152.6094"/><rect fill="#F1F1F1" height="2" style="stroke:#181818;stroke-width:0.5;" width="4" x="144.4375" y="156.6094"/><text fill="#000000" font-family="sans-serif" font-size="14" lengthAdjust="spacing" textLength="42" x="22" y="180.1426">&#27983;&#35272;&#22120;</text><text fill="#000000" font-family="sans-serif" font-size="14" lengthAdjust="spacing" textLength="119.4375" x="22" y="197.752">React + TypeScript</text></g><!--entity MP--><g class="entity" data-entity="MP" data-source-line="8" data-uid="ent0003" id="entity_MP"><rect fill="#F1F1F1" height="65.2188" rx="2.5" ry="2.5" style="stroke:#181818;stroke-width:0.5;" width="141.9512" x="293" y="145.6094"/><rect fill="#F1F1F1" height="10" style="stroke:#181818;stroke-width:0.5;" width="15" x="414.9512" y="150.6094"/><rect fill="#F1F1F1" height="2" style="stroke:#181818;stroke-width:0.5;" width="4" x="412.9512" y="152.6094"/><rect fill="#F1F1F1" height="2" style="stroke:#181818;stroke-width:0.5;" width="4" x="412.9512" y="156.6094"/><text fill="#000000" font-family="sans-serif" font-size="14" lengthAdjust="spacing" textLength="101.9512" x="308" y="180.1426">MediaPipe Pose</text><text fill="#000000" font-family="sans-serif" font-size="14" lengthAdjust="spacing" textLength="61.4619" x="308" y="197.752">33 &#20851;&#38190;&#28857;</text></g><!--entity Backend--><g class="entity" data-entity="Backend" data-source-line="9" data-uid="ent0004" id="entity_Backend"><rect fill="#F1F1F1" height="65.2188" rx="2.5" ry="2.5" style="stroke:#181818;stroke-width:0.5;" width="145.0479" x="569" y="145.6094"/><rect fill="#F1F1F1" height="10" style="stroke:#181818;stroke-width:0.5;" width="15" x="694.0479" y="150.6094"/><rect fill="#F1F1F1" height="2" style="stroke:#181818;stroke-width:0.5;" width="4" x="692.0479" y="152.6094"/><rect fill="#F1F1F1" height="2" style="stroke:#181818;stroke-width:0.5;" width="4" x="692.0479" y="156.6094"/><text fill="#000000" font-family="sans-serif" font-size="14" lengthAdjust="spacing" textLength="105.0479" x="584" y="180.1426">Spring Boot &#21518;&#31471;</text><text fill="#000000" font-family="sans-serif" font-size="14" lengthAdjust="spacing" textLength="49.0342" x="584" y="197.752">Java 17</text></g><!--entity EC--><g class="entity" data-entity="EC" data-source-line="10" data-uid="ent0005" id="entity_EC"><rect fill="#F1F1F1" height="47.6094" rx="2.5" ry="2.5" style="stroke:#181818;stroke-width:0.5;" width="154.3721" x="775" y="71.1094"/><rect fill="#F1F1F1" height="10" style="stroke:#181818;stroke-width:0.5;" width="15" x="909.3721" y="76.1094"/><rect fill="#F1F1F1" height="2" style="stroke:#181818;stroke-width:0.5;" width="4" x="907.3721" y="78.1094"/><rect fill="#F1F1F1" height="2" style="stroke:#181818;stroke-width:0.5;" width="4" x="907.3721" y="82.1094"/><text fill="#000000" font-family="sans-serif" font-size="14" lengthAdjust="spacing" textLength="114.3721" x="790" y="105.6426">ExerciseController</text></g><!--entity UC--><g class="entity" data-entity="UC" data-source-line="11" data-uid="ent0006" id="entity_UC"><rect fill="#F1F1F1" height="47.6094" rx="2.5" ry="2.5" style="stroke:#181818;stroke-width:0.5;" width="130.248" x="787" y="154.1094"/><rect fill="#F1F1F1" height="10" style="stroke:#181818;stroke-width:0.5;" width="15" x="897.248" y="159.1094"/><rect fill="#F1F1F1" height="2" style="stroke:#181818;stroke-width:0.5;" width="4" x="895.248" y="161.1094"/><rect fill="#F1F1F1" height="2" style="stroke:#181818;stroke-width:0.5;" width="4" x="895.248" y="165.1094"/><text fill="#000000" font-family="sans-serif" font-size="14" lengthAdjust="spacing" textLength="90.248" x="802" y="188.6426">UserController</text></g><!--entity MC--><g class="entity" data-entity="MC" data-source-line="12" data-uid="ent0007" id="entity_MC"><rect fill="#F1F1F1" height="47.6094" rx="2.5" ry="2.5" style="stroke:#181818;stroke-width:0.5;" width="131.0342" x="786.5" y="237.1094"/><rect fill="#F1F1F1" height="10" style="stroke:#181818;stroke-width:0.5;" width="15" x="897.5342" y="242.1094"/><rect fill="#F1F1F1" height="2" style="stroke:#181818;stroke-width:0.5;" width="4" x="895.5342" y="244.1094"/><rect fill="#F1F1F1" height="2" style="stroke:#181818;stroke-width:0.5;" width="4" x="895.5342" y="248.1094"/><text fill="#000000" font-family="sans-serif" font-size="14" lengthAdjust="spacing" textLength="91.0342" x="801.5" y="271.6426">MainController</text></g><!--entity PAF--><g class="entity" data-entity="PAF" data-source-line="13" data-uid="ent0008" id="entity_PAF"><rect fill="#F1F1F1" height="47.6094" rx="2.5" ry="2.5" style="stroke:#181818;stroke-width:0.5;" width="173.0547" x="990" y="67.1094"/><rect fill="#F1F1F1" height="10" style="stroke:#181818;stroke-width:0.5;" width="15" x="1143.0547" y="72.1094"/><rect fill="#F1F1F1" height="2" style="stroke:#181818;stroke-width:0.5;" width="4" x="1141.0547" y="74.1094"/><rect fill="#F1F1F1" height="2" style="stroke:#181818;stroke-width:0.5;" width="4" x="1141.0547" y="78.1094"/><text fill="#000000" font-family="sans-serif" font-size="14" lengthAdjust="spacing" textLength="133.0547" x="1005" y="101.6426">PoseAnalyzerFactory</text></g><!--entity Analyzer--><g class="entity" data-entity="Analyzer" data-source-line="14" data-uid="ent0009" id="entity_Analyzer"><rect fill="#F1F1F1" height="82.8281" rx="2.5" ry="2.5" style="stroke:#181818;stroke-width:0.5;" width="168.3926" x="1293" y="45.6094"/><rect fill="#F1F1F1" height="10" style="stroke:#181818;stroke-width:0.5;" width="15" x="1441.3926" y="50.6094"/><rect fill="#F1F1F1" height="2" style="stroke:#181818;stroke-width:0.5;" width="4" x="1439.3926" y="52.6094"/><rect fill="#F1F1F1" height="2" style="stroke:#181818;stroke-width:0.5;" width="4" x="1439.3926" y="56.6094"/><text fill="#000000" font-family="sans-serif" font-size="14" lengthAdjust="spacing" textLength="103.5166" x="1308" y="80.1426">Squat / Pushup /</text><text fill="#000000" font-family="sans-serif" font-size="14" lengthAdjust="spacing" textLength="128.3926" x="1308" y="97.752">Plank / JumpingJack</text><text fill="#000000" font-family="sans-serif" font-size="14" lengthAdjust="spacing" textLength="54.4688" x="1308" y="115.3613">Analyzer</text></g><!--entity US--><g class="entity" data-entity="US" data-source-line="15" data-uid="ent0010" id="entity_US"><rect fill="#F1F1F1" height="47.6094" rx="2.5" ry="2.5" style="stroke:#181818;stroke-width:0.5;" width="116.2412" x="1018.5" y="158.1094"/><rect fill="#F1F1F1" height="10" style="stroke:#181818;stroke-width:0.5;" width="15" x="1114.7412" y="163.1094"/><rect fill="#F1F1F1" height="2" style="stroke:#181818;stroke-width:0.5;" width="4" x="1112.7412" y="165.1094"/><rect fill="#F1F1F1" height="2" style="stroke:#181818;stroke-width:0.5;" width="4" x="1112.7412" y="169.1094"/><text fill="#000000" font-family="sans-serif" font-size="14" lengthAdjust="spacing" textLength="76.2412" x="1033.5" y="192.6426">UserService</text></g><!--entity DB--><g class="entity" data-entity="DB" data-source-line="16" data-uid="ent0011" id="entity_DB"><path d="M1329,173.6094 C1329,163.6094 1377.1309,163.6094 1377.1309,163.6094 C1377.1309,163.6094 1425.2617,163.6094 1425.2617,173.6094 L1425.2617,200.2188 C1425.2617,210.2188 1377.1309,210.2188 1377.1309,210.2188 C1377.1309,210.2188 1329,210.2188 1329,200.2188 L1329,173.6094" fill="#F1F1F1" style="stroke:#181818;stroke-width:0.5;"/><path d="M1329,173.6094 C1329,183.6094 1377.1309,183.6094 1377.1309,183.6094 C1377.1309,183.6094 1425.2617,183.6094 1425.2617,173.6094" fill="none" style="stroke:#181818;stroke-width:0.5;"/><text fill="#000000" font-family="sans-serif" font-size="14" lengthAdjust="spacing" textLength="76.2617" x="1339" y="202.1426">PostgreSQL</text></g><!--link Browser to MP--><g class="link" data-entity-1="Browser" data-entity-2="MP" data-source-line="18" data-uid="lnk12" id="link_Browser_MP"><path d="M166.08,178.1094 C206,178.1094 248.1,178.1094 286.78,178.1094" fill="none" id="Browser-to-MP" style="stroke:#181818;stroke-width:1;"/><polygon fill="#181818" points="292.78,178.1094,283.78,174.1094,287.78,178.1094,283.78,182.1094,292.78,178.1094" style="stroke:#181818;stroke-width:1;"/><text fill="#000000" font-family="sans-serif" font-size="13" lengthAdjust="spacing" textLength="65" x="197" y="174.6045">&#25668;&#20687;&#22836;&#25968;&#25454;</text></g><!--link MP to Backend--><g class="link" data-entity-1="MP" data-entity-2="Backend" data-source-line="19" data-uid="lnk13" id="link_MP_Backend"><path d="M435.23,178.1094 C476.2,178.1094 521.76,178.1094 562.96,178.1094" fill="none" id="MP-to-Backend" style="stroke:#181818;stroke-width:1;"/><polygon fill="#181818" points="568.96,178.1094,559.96,174.1094,563.96,178.1094,559.96,182.1094,568.96,178.1094" style="stroke:#181818;stroke-width:1;"/><text fill="#000000" font-family="sans-serif" font-size="13" lengthAdjust="spacing" textLength="72.2236" x="466" y="174.6045">HTTP REST</text></g><!--link Backend to EC--><g class="link" data-entity-1="Backend" data-entity-2="EC" data-source-line="20" data-uid="lnk14" id="link_Backend_EC"><path d="M714.25,149.5494 C739.11,139.6494 761.1256,130.8889 784.9856,121.3889" fill="none" id="Backend-to-EC" style="stroke:#181818;stroke-width:1;"/><polygon fill="#181818" points="790.56,119.1694,780.7188,118.7823,785.9147,121.0189,783.6781,126.2149,790.56,119.1694" style="stroke:#181818;stroke-width:1;"/></g><!--link Backend to UC--><g class="link" data-entity-1="Backend" data-entity-2="UC" data-source-line="21" data-uid="lnk15" id="link_Backend_UC"><path d="M714.25,178.1094 C737.81,178.1094 757.83,178.1094 780.8,178.1094" fill="none" id="Backend-to-UC" style="stroke:#181818;stroke-width:1;"/><polygon fill="#181818" points="786.8,178.1094,777.8,174.1094,781.8,178.1094,777.8,182.1094,786.8,178.1094" style="stroke:#181818;stroke-width:1;"/></g><!--link Backend to MC--><g class="link" data-entity-1="Backend" data-entity-2="MC" data-source-line="22" data-uid="lnk16" id="link_Backend_MC"><path d="M714.25,206.6694 C739.11,216.5694 761.1256,225.3299 784.9856,234.8299" fill="none" id="Backend-to-MC" style="stroke:#181818;stroke-width:1;"/><polygon fill="#181818" points="790.56,237.0494,783.6781,230.0039,785.9147,235.1998,780.7188,237.4364,790.56,237.0494" style="stroke:#181818;stroke-width:1;"/></g><!--link EC to PAF--><g class="link" data-entity-1="EC" data-entity-2="PAF" data-source-line="23" data-uid="lnk17" id="link_EC_PAF"><path d="M929.26,93.7394 C948.76,93.3894 963.851,93.1177 983.791,92.7577" fill="none" id="EC-to-PAF" style="stroke:#181818;stroke-width:1;"/><polygon fill="#181818" points="989.79,92.6494,980.7193,88.8125,984.7908,92.7396,980.8637,96.8112,989.79,92.6494" style="stroke:#181818;stroke-width:1;"/></g><!--link PAF to Analyzer--><g class="link" data-entity-1="PAF" data-entity-2="Analyzer" data-source-line="24" data-uid="lnk18" id="link_PAF_Analyzer"><path d="M1163.04,89.9594 C1203.78,89.4194 1246.3205,88.8495 1286.7705,88.3095" fill="none" id="PAF-to-Analyzer" style="stroke:#181818;stroke-width:1;"/><polygon fill="#181818" points="1292.77,88.2294,1283.7174,84.3499,1287.7704,88.2961,1283.8242,92.3492,1292.77,88.2294" style="stroke:#181818;stroke-width:1;"/></g><!--link UC to US--><g class="link" data-entity-1="UC" data-entity-2="US" data-source-line="25" data-uid="lnk19" id="link_UC_US"><path d="M917.06,179.2594 C949.02,179.8394 981.3709,180.4228 1012.3309,180.9728" fill="none" id="UC-to-US" style="stroke:#181818;stroke-width:1;"/><polygon fill="#181818" points="1018.33,181.0794,1009.4025,176.9201,1013.3308,180.9906,1009.2604,184.9189,1018.33,181.0794" style="stroke:#181818;stroke-width:1;"/></g><!--link US to DB--><g class="link" data-entity-1="US" data-entity-2="DB" data-source-line="26" data-uid="lnk20" id="link_US_DB"><path d="M1134.7,183.0694 C1191.07,184.0094 1270.1908,185.339 1322.8108,186.219" fill="none" id="US-to-DB" style="stroke:#181818;stroke-width:1;"/><polygon fill="#181818" points="1328.81,186.3194,1319.8781,182.1694,1323.8107,186.2358,1319.7444,190.1683,1328.81,186.3194" style="stroke:#181818;stroke-width:1;"/><text fill="#000000" font-family="sans-serif" font-size="13" lengthAdjust="spacing" textLength="68.6245" x="1194" y="180.6045">JPA / JDBC</text></g><!--SRC=[NL1DRzD04BtlhnZrYgeAzO340Sbs4j68IAQsRxvCrzDa5MVNpAvRmf4FYGiK93XmHm89gI3H7lg3dCA_OEqqoCbXfPbvRsRVUqwvac2ad2PhWoD8oJf8fAa80fOpvKYwcaa8ErUwGiO5dA2SJzdKkeXCQHWSexOU8krwB3l3mfmhFOLJB2s9aauTE0EifZC7XM9_M1ajX3IBocY_37khwui_tzusNxxd-fXGEhW7wRAYHBAgt1wWXP3DkINkBqseK1WhBpWsbd9zU0ZDczz_FrtUlhpfTYPndvvKt8eAZN7GV7X_- -DdhiTuXd3_mVe7xuvqqLyPFYUMob9aj6DJbiGTSnZrIPcNjKF8jWWJL7g7CDaYjF83ZUNo1V78kpUyx5XnCDeoyAn61mSGrtPMLt2GwxX4FVUJSRselBUnTv3hpQNknARP5PmGdob9QxM9AD3X2LhgjBWfK_BqIOSDGY7keeVz_KS-KdW8gu-lcrSNpTUhrUTVgtUNmWzRx2v0JtYSfZ4S3vDKR6OjxcFhjzbswoCPHbtLslQlg__hpzQOrvebNJK8_KVZE6Zj3y98_0C0]--></g></svg>